<svg xmlns="http://www.w3.org/2000/svg" version="1.1" xmlns:xlink="http://www.w3.org/1999/xlink" xmlns:svgjs="http://svgjs.dev/svgjs" width="1440" height="400" preserveAspectRatio="none" viewBox="0 0 1440 400"><g mask="url(&quot;#SvgjsMask1146&quot;)" fill="none"><rect width="1440" height="400" x="0" y="0" fill="#1e3266"></rect><path d="M1464 400L0 400 L0 206.21Q46.84 133.05, 120 179.89Q202.32 142.21, 240 224.53Q285.35 197.88, 312 243.22Q351.01 162.24, 432 201.25Q478.88 176.13, 504 223.01Q569.1 168.1, 624 233.2Q668.95 158.15, 744 203.1Q771.45 158.55, 816 185.99Q870.63 168.62, 888 223.24Q959.22 174.46, 1008 245.68Q1040.63 158.31, 1128 190.94Q1157.43 148.38, 1200 177.81Q1296.53 154.34, 1320 250.87Q1328.69 187.56, 1392 196.26Q1421.51 153.77, 1464 183.28z" fill="#182f5d"></path><path d="M1512 400L0 400 L0 262.94Q44.07 235.01, 72 279.08Q116.19 203.27, 192 247.46Q222.71 206.17, 264 236.88Q336.87 189.75, 384 262.61Q454.84 213.45, 504 284.29Q534.16 242.46, 576 272.62Q620.98 197.6, 696 242.58Q781.17 207.75, 816 292.93Q836.83 241.75, 888 262.58Q970.7 225.28, 1008 307.99Q1059.17 239.16, 1128 290.34Q1170.11 212.45, 1248 254.56Q1278.47 213.03, 1320 243.5Q1367.7 219.2, 1392 266.9Q1464.09 218.99, 1512 291.08z" fill="#25467d"></path><path d="M1560 400L0 400 L0 300.16Q81.43 261.59, 120 343.01Q162.24 313.25, 192 355.49Q212.82 304.31, 264 325.14Q316.87 258, 384 310.87Q460.97 267.84, 504 344.81Q549.51 318.32, 576 363.83Q583.74 299.57, 648 307.31Q702.95 242.26, 768 297.21Q856.16 265.37, 888 353.53Q931.86 277.39, 1008 321.25Q1056.03 249.27, 1128 297.3Q1210.94 260.25, 1248 343.19Q1298.39 273.58, 1368 323.97Q1389.63 273.6, 1440 295.23Q1507.47 242.7, 1560 310.16z" fill="#356cb1"></path><path d="M1464 400L0 400 L0 355.34Q73.02 308.36, 120 381.37Q173.79 363.16, 192 416.95Q241.64 346.59, 312 396.23Q327.22 339.45, 384 354.66Q425.2 323.86, 456 365.06Q517.38 354.44, 528 415.83Q532.01 347.84, 600 351.85Q666.42 298.27, 720 364.7Q764.72 337.42, 792 382.14Q847.31 365.45, 864 420.77Q864.34 349.11, 936 349.45Q1007.05 300.5, 1056 371.55Q1116.74 360.3, 1128 421.04Q1156.65 377.69, 1200 406.34Q1231.8 318.13, 1320 349.93Q1367.08 325.01, 1392 372.09Q1451.54 359.63, 1464 419.16z" fill="white"></path></g><defs><mask id="SvgjsMask1146"><rect width="1440" height="400" fill="#ffffff"></rect></mask></defs></svg>