<svg width="123" height="109" viewBox="0 0 123 109" fill="none" xmlns="http://www.w3.org/2000/svg">
<path d="M67.9402 103.65V108.34H65.0002V103.65H17.7002V108.33H14.8102V103.65H13.1402C11.7067 103.752 10.2849 103.329 9.14024 102.46C8.57311 101.927 8.12898 101.277 7.83883 100.555C7.54867 99.8335 7.41948 99.057 7.46024 98.28V77.17C6.25078 76.8468 5.09518 76.3482 4.03024 75.69C2.75313 74.912 1.73393 73.7745 1.10024 72.42C-0.959756 67.87 0.100243 64.05 2.52024 61.42C3.66027 60.2441 5.05171 59.3415 6.59024 58.78C8.12173 58.2059 9.75859 57.9672 11.3902 58.08C12.6035 58.1695 13.7899 58.4813 14.8902 59V44.5C14.8902 38.5 15.7902 35.38 18.0902 33.64C20.3902 31.9 23.6102 31.86 28.5302 31.86H50.0002V3.64C50.0029 2.67715 50.3858 1.75434 51.0657 1.07256C51.7456 0.390781 52.6674 0.00527234 53.6302 0L119.24 0C120.205 0.00263908 121.129 0.386985 121.811 1.06905C122.493 1.75111 122.878 2.67542 122.88 3.64V97.64H120.11V102.59H96.4602V97.65H75.2702V98.23C75.3131 99.0072 75.1848 99.7844 74.8945 100.507C74.6043 101.229 74.159 101.879 73.5902 102.41C72.4423 103.273 71.023 103.695 69.5902 103.6H67.9402V103.65ZM96.4302 46.87C96.4128 46.6499 96.4411 46.4286 96.5133 46.22C96.5856 46.0114 96.7002 45.82 96.85 45.6578C96.9998 45.4957 97.1816 45.3663 97.3839 45.2778C97.5861 45.1893 97.8045 45.1436 98.0252 45.1436C98.246 45.1436 98.4644 45.1893 98.6666 45.2778C98.8689 45.3663 99.0506 45.4957 99.2005 45.6578C99.3503 45.82 99.4649 46.0114 99.5371 46.22C99.6094 46.4286 99.6377 46.6499 99.6202 46.87V55.24C99.5885 55.6412 99.4066 56.0157 99.111 56.2888C98.8154 56.5619 98.4277 56.7136 98.0252 56.7136C97.6228 56.7136 97.2351 56.5619 96.9395 56.2888C96.6439 56.0157 96.462 55.6412 96.4302 55.24V46.87ZM88.0002 3.19V94.46H119.66V3.64C119.662 3.58053 119.651 3.5214 119.629 3.46619C119.607 3.41097 119.574 3.36082 119.531 3.31876C119.489 3.27669 119.439 3.2436 119.384 3.22147C119.329 3.19934 119.27 3.18863 119.21 3.19H88.0002ZM84.8402 94.46V3.19H53.6302C53.5138 3.1906 53.4023 3.23735 53.3202 3.32C53.2753 3.36017 53.2396 3.40954 53.2154 3.46476C53.1912 3.51997 53.1793 3.57974 53.1802 3.64V31.86H54.3002C59.6502 31.86 62.9102 32.07 65.0502 33.98C67.1902 35.89 67.8202 39.18 67.8202 45.26V59.6C69.2917 58.9173 70.8983 58.5755 72.5202 58.6C74.0776 58.6106 75.6173 58.9301 77.0502 59.54C78.4718 60.1353 79.7402 61.0447 80.7602 62.2C82.9602 64.71 83.7602 68.31 81.6202 72.49C80.9446 73.7865 79.937 74.8804 78.7002 75.66C77.6352 76.3276 76.4802 76.8395 75.2702 77.18V94.46H84.8402ZM17.7902 61.23C18.7537 62.3479 19.4633 63.6614 19.8702 65.08C20.1119 65.8712 20.2695 66.6857 20.3402 67.51C20.4204 68.4149 20.4204 69.3251 20.3402 70.23V74.09H62.4002V70.17C62.3313 69.288 62.3313 68.402 62.4002 67.52C62.4431 66.6583 62.6185 65.8083 62.9202 65C63.3835 63.81 64.0615 62.7151 64.9202 61.77V45.26C64.9202 40.07 64.5102 37.37 63.1202 36.13C61.7302 34.89 59.0002 34.75 54.3002 34.75H28.5302C24.1902 34.75 21.3502 34.75 19.8302 35.95C18.3102 37.15 17.8302 39.53 17.8302 44.5V61.23H17.7902ZM20.3402 77V81.86H62.4002V77H20.3402ZM15.5502 63.1C15.3816 62.9878 15.2384 62.8413 15.1302 62.67C14.0173 61.6908 12.6099 61.1102 11.1302 61.02C9.91332 60.9316 8.69173 61.109 7.55024 61.54C6.41649 61.9468 5.39047 62.6069 4.55024 63.47C2.86024 65.25 2.16024 67.95 3.66024 71.23C4.07425 72.0654 4.72448 72.7609 5.53024 73.23C6.65473 73.899 7.88608 74.3692 9.17024 74.62C9.48853 74.6944 9.77234 74.8741 9.97564 75.1301C10.1789 75.386 10.2898 75.7031 10.2902 76.03V98.21C10.2494 98.5789 10.287 98.9523 10.4008 99.3057C10.5145 99.659 10.7018 99.9842 10.9502 100.26C11.5787 100.665 12.3262 100.845 13.0702 100.77H17.3802V70C17.4551 69.2485 17.4551 68.4915 17.3802 67.74C17.3281 67.1129 17.2108 66.4929 17.0302 65.89C16.7237 64.8417 16.1873 63.875 15.4602 63.06L15.5502 63.1ZM65.3002 75.1C65.3937 75.3927 65.3937 75.7073 65.3002 76V83C65.3106 83.1064 65.3106 83.2136 65.3002 83.32C65.3101 83.4298 65.3101 83.5402 65.3002 83.65V100.78H69.6002C70.3481 100.846 71.0969 100.663 71.7302 100.26C71.9686 99.9879 72.1499 99.6706 72.2633 99.327C72.3767 98.9834 72.4198 98.6206 72.3902 98.26V76.05C72.3893 75.7021 72.5143 75.3655 72.7423 75.1027C72.9702 74.8398 73.2857 74.6683 73.6302 74.62C74.8681 74.3613 76.0522 73.8911 77.1302 73.23C77.9256 72.7217 78.5711 72.0107 79.0002 71.17C80.5102 68.17 80.0002 65.76 78.5502 64.08C77.8086 63.2585 76.893 62.6128 75.8702 62.19C74.7924 61.7269 73.6333 61.4821 72.4602 61.47C70.9874 61.4226 69.536 61.8327 68.3058 62.6439C67.0755 63.4551 66.1268 64.6275 65.5902 66C65.3919 66.5398 65.274 67.1059 65.2402 67.68C65.1924 68.4534 65.2091 69.2294 65.2902 70V70.13V75.06L65.3002 75.1ZM20.3002 100.77H62.4002V84.77H20.3402V100.77H20.3002Z" fill="white"/>
</svg>
